<?xml version="1.0" encoding="utf-8"?>
<!-- Generator: Adobe Illustrator 24.1.0, SVG Export Plug-In . SVG Version: 6.00 Build 0)  -->
<svg version="1.1" id="Layer_2" xmlns="http://www.w3.org/2000/svg" xmlns:xlink="http://www.w3.org/1999/xlink" x="0px" y="0px"
	 viewBox="0 0 566.93 74.58" style="enable-background:new 0 0 566.93 74.58;" xml:space="preserve">
<style type="text/css">
	.st0{fill:#3B9DD8;}
	.st1{fill:#FFFFFF;}
	.st2{fill:#DE2C6C;}
	.st3{display:none;}
	.st4{display:inline;fill:#DE2C6C;}
	.st5{display:inline;fill:#706F6F;}
	.st6{fill:#DF2B6C;}
</style>
<g>
	<path class="st0" d="M40.67,7.89v3.34c0.16,0,0.93,0.01,1.84-0.13c1.02-0.16,1.68,1.07,1.56,1.76c-0.13,0.81-0.9,2.38-1.12,4.49
		c-0.06,0.58,0.14,0.75,0.25,0.8c0.71,0.1,1.42,0.24,2.1,0.41c0.12-0.01,0.36-0.11,0.52-0.64c0.6-2.03,0.5-3.78,0.68-4.57
		c0.16-0.68,1.24-1.57,2.12-1.03c0.88,0.54,1.68,0.84,1.68,0.84s0.78,0.36,1.78,0.6c1,0.24,1.14,1.63,0.77,2.22
		c-0.43,0.69-1.74,1.85-2.75,3.72c-0.28,0.51-0.16,0.75-0.08,0.83c0.62,0.36,1.21,0.76,1.78,1.19c0.11,0.04,0.38,0.05,0.74-0.39
		c1.33-1.65,1.9-3.3,2.38-3.96c0.41-0.57,1.74-0.98,2.35-0.14c0.61,0.84,1.24,1.42,1.24,1.42s0.58,0.63,1.42,1.24
		c0.84,0.61,0.43,1.94-0.14,2.35c-0.66,0.47-2.32,1.05-3.96,2.38c-0.45,0.36-0.43,0.63-0.39,0.74c0.43,0.57,0.82,1.16,1.19,1.78
		c0.09,0.08,0.33,0.2,0.83-0.08c1.86-1.01,3.02-2.32,3.72-2.75c0.59-0.37,1.98-0.23,2.22,0.77c0.24,1,0.6,1.78,0.6,1.78
		s0.3,0.8,0.84,1.68c0.54,0.88-0.35,1.96-1.03,2.12c-0.8,0.18-2.54,0.08-4.57,0.68c-0.54,0.16-0.63,0.4-0.64,0.52
		c0.18,0.69,0.31,1.39,0.41,2.1c0.05,0.1,0.22,0.31,0.8,0.25c2.11-0.22,3.68-0.99,4.49-1.12c0.69-0.11,1.92,0.54,1.76,1.56
		c-0.16,1.02-0.13,1.87-0.13,1.87s-0.03,0.85,0.13,1.87c0.16,1.02-1.07,1.68-1.76,1.56c-0.81-0.13-2.38-0.9-4.49-1.12
		c-0.58-0.06-0.75,0.14-0.8,0.25c-0.1,0.71-0.24,1.42-0.41,2.1c0.01,0.12,0.11,0.36,0.64,0.52c2.03,0.6,3.78,0.5,4.57,0.68
		c0.68,0.16,1.57,1.24,1.03,2.12c-0.54,0.88-0.84,1.68-0.84,1.68s-0.36,0.78-0.6,1.78c-0.24,1-1.63,1.14-2.22,0.77
		c-0.69-0.43-1.85-1.74-3.72-2.75c-0.51-0.28-0.75-0.16-0.83-0.08c-0.36,0.62-0.76,1.21-1.19,1.78c-0.04,0.11-0.05,0.38,0.39,0.74
		c1.65,1.33,3.3,1.9,3.96,2.38c0.57,0.41,0.98,1.74,0.14,2.35c-0.84,0.61-1.42,1.24-1.42,1.24s-0.63,0.58-1.24,1.42
		c-0.61,0.84-1.94,0.43-2.35-0.14c-0.47-0.66-1.05-2.32-2.38-3.96c-0.36-0.45-0.63-0.43-0.74-0.39c-0.57,0.43-1.16,0.82-1.78,1.19
		c-0.08,0.09-0.2,0.33,0.08,0.83c1.01,1.86,2.32,3.02,2.75,3.72c0.37,0.59,0.23,1.98-0.77,2.22c-1,0.24-1.78,0.6-1.78,0.6
		s-0.8,0.3-1.68,0.84c-0.88,0.54-1.96-0.35-2.12-1.03c-0.18-0.8-0.08-2.54-0.68-4.57c-0.16-0.54-0.4-0.63-0.52-0.64
		c-0.69,0.18-1.39,0.31-2.1,0.41c-0.1,0.05-0.31,0.22-0.25,0.8c0.22,2.11,0.99,3.68,1.12,4.49c0.11,0.69-0.54,1.92-1.56,1.76
		c-0.91-0.14-1.69-0.13-1.84-0.13v3.56H67.5L78.1,7.89H40.67z"/>
	<path class="st1" d="M42.51,61.9c1.02,0.16,1.68-1.07,1.56-1.76c-0.13-0.81-0.9-2.38-1.12-4.49c-0.06-0.58,0.14-0.75,0.25-0.8
		c0.71-0.1,1.42-0.24,2.1-0.41c0.12,0.01,0.36,0.11,0.52,0.64c0.6,2.03,0.5,3.78,0.68,4.57c0.16,0.68,1.24,1.57,2.12,1.03
		c0.88-0.54,1.68-0.84,1.68-0.84s0.78-0.36,1.78-0.6c1-0.24,1.14-1.63,0.77-2.22c-0.43-0.69-1.74-1.85-2.75-3.72
		c-0.28-0.51-0.16-0.75-0.08-0.83c0.62-0.36,1.21-0.76,1.78-1.19c0.11-0.04,0.38-0.05,0.74,0.39c1.33,1.65,1.9,3.3,2.38,3.96
		c0.41,0.57,1.74,0.98,2.35,0.14c0.61-0.84,1.24-1.42,1.24-1.42s0.58-0.63,1.42-1.24c0.84-0.61,0.43-1.94-0.14-2.35
		c-0.66-0.47-2.32-1.05-3.96-2.38c-0.45-0.36-0.43-0.63-0.39-0.74c0.43-0.57,0.82-1.16,1.19-1.78c0.09-0.08,0.33-0.2,0.83,0.08
		c1.86,1.01,3.02,2.32,3.72,2.75c0.59,0.37,1.98,0.23,2.22-0.77c0.24-1,0.6-1.78,0.6-1.78s0.3-0.8,0.84-1.68
		c0.54-0.88-0.35-1.96-1.03-2.12c-0.8-0.18-2.54-0.08-4.57-0.68c-0.54-0.16-0.63-0.4-0.64-0.52c0.18-0.69,0.31-1.39,0.41-2.1
		c0.05-0.1,0.22-0.31,0.8-0.25c2.11,0.22,3.68,0.99,4.49,1.12c0.69,0.11,1.92-0.54,1.76-1.56c-0.16-1.02-0.13-1.87-0.13-1.87
		s-0.03-0.85,0.13-1.87c0.16-1.02-1.07-1.68-1.76-1.56c-0.81,0.13-2.38,0.9-4.49,1.12c-0.58,0.06-0.75-0.14-0.8-0.25
		c-0.1-0.72-0.24-1.42-0.41-2.1c0.01-0.12,0.11-0.36,0.64-0.52c2.03-0.6,3.78-0.5,4.57-0.68c0.68-0.16,1.57-1.24,1.03-2.12
		c-0.54-0.88-0.84-1.68-0.84-1.68s-0.36-0.78-0.6-1.78c-0.24-1-1.63-1.14-2.22-0.77c-0.69,0.43-1.85,1.74-3.72,2.75
		c-0.51,0.28-0.75,0.16-0.83,0.08c-0.36-0.62-0.76-1.21-1.19-1.78c-0.04-0.11-0.05-0.38,0.39-0.74c1.65-1.33,3.3-1.9,3.96-2.38
		c0.57-0.41,0.98-1.74,0.14-2.35c-0.84-0.61-1.42-1.24-1.42-1.24s-0.63-0.58-1.24-1.42c-0.61-0.84-1.94-0.43-2.35,0.14
		c-0.47,0.66-1.05,2.32-2.38,3.96c-0.36,0.45-0.63,0.43-0.74,0.39c-0.57-0.43-1.16-0.82-1.78-1.19c-0.08-0.09-0.2-0.33,0.08-0.83
		c1.01-1.86,2.32-3.02,2.75-3.72c0.37-0.59,0.23-1.98-0.77-2.22c-1-0.24-1.78-0.6-1.78-0.6s-0.8-0.3-1.68-0.84
		c-0.88-0.54-1.96,0.35-2.12,1.03c-0.18,0.8-0.08,2.54-0.68,4.57c-0.16,0.54-0.4,0.63-0.52,0.64c-0.69-0.18-1.39-0.31-2.1-0.41
		c-0.1-0.05-0.31-0.22-0.25-0.8c0.22-2.11,0.99-3.68,1.12-4.49c0.11-0.69-0.54-1.92-1.56-1.76c-0.91,0.14-1.69,0.13-1.84,0.13v50.53
		C40.82,61.76,41.6,61.75,42.51,61.9z"/>
</g>
<path class="st2" d="M38.82,62c-1.02,0.16-1.68-1.07-1.56-1.76c0.13-0.81,0.9-2.38,1.12-4.49c0.06-0.58-0.14-0.75-0.25-0.8
	c-0.71-0.1-1.42-0.24-2.1-0.41c-0.12,0.01-0.36,0.11-0.52,0.64c-0.6,2.03-0.5,3.78-0.68,4.57c-0.16,0.68-1.24,1.57-2.12,1.03
	c-0.88-0.54-1.68-0.84-1.68-0.84s-0.78-0.36-1.78-0.6c-1-0.24-1.14-1.63-0.77-2.22c0.43-0.69,1.74-1.85,2.75-3.72
	c0.28-0.51,0.16-0.75,0.08-0.83c-0.62-0.36-1.21-0.76-1.78-1.19c-0.11-0.04-0.38-0.05-0.74,0.39c-1.33,1.65-1.9,3.3-2.38,3.96
	c-0.41,0.57-1.74,0.98-2.35,0.14c-0.61-0.84-1.24-1.42-1.24-1.42s-0.58-0.63-1.42-1.24c-0.84-0.61-0.43-1.94,0.14-2.35
	c0.66-0.47,2.32-1.05,3.96-2.38c0.45-0.36,0.43-0.63,0.39-0.74c-0.43-0.57-0.82-1.16-1.19-1.78c-0.09-0.08-0.33-0.2-0.83,0.08
	c-1.86,1.01-3.02,2.32-3.72,2.75c-0.59,0.37-1.98,0.23-2.22-0.77c-0.24-1-0.6-1.78-0.6-1.78s-0.3-0.8-0.84-1.68
	c-0.54-0.88,0.35-1.96,1.03-2.12c0.8-0.18,2.54-0.08,4.57-0.68c0.54-0.16,0.63-0.4,0.64-0.52c-0.18-0.69-0.31-1.39-0.41-2.1
	c-0.05-0.1-0.22-0.31-0.8-0.25c-2.11,0.22-3.68,0.99-4.49,1.12c-0.69,0.11-1.92-0.54-1.76-1.56c0.16-1.02,0.13-1.87,0.13-1.87
	s0.03-0.85-0.13-1.87c-0.16-1.02,1.07-1.68,1.76-1.56c0.81,0.13,2.38,0.9,4.49,1.12c0.58,0.06,0.75-0.14,0.8-0.25
	c0.1-0.72,0.24-1.42,0.41-2.1c-0.01-0.12-0.11-0.36-0.64-0.52c-2.03-0.6-3.78-0.5-4.57-0.68c-0.68-0.16-1.57-1.24-1.03-2.12
	c0.54-0.88,0.84-1.68,0.84-1.68s0.36-0.78,0.6-1.78c0.24-1,1.63-1.14,2.22-0.77c0.69,0.43,1.85,1.74,3.72,2.75
	c0.51,0.28,0.75,0.16,0.83,0.08c0.36-0.62,0.76-1.21,1.19-1.78c0.04-0.11,0.05-0.38-0.39-0.74c-1.65-1.33-3.3-1.9-3.96-2.38
	c-0.57-0.41-0.98-1.74-0.14-2.35c0.84-0.61,1.42-1.24,1.42-1.24s0.63-0.58,1.24-1.42c0.61-0.84,1.94-0.43,2.35,0.14
	c0.47,0.66,1.05,2.32,2.38,3.96c0.36,0.45,0.63,0.43,0.74,0.39c0.57-0.43,1.16-0.82,1.78-1.19c0.08-0.09,0.2-0.33-0.08-0.83
	c-1.01-1.86-2.32-3.02-2.75-3.72c-0.37-0.59-0.23-1.98,0.77-2.22c1-0.24,1.78-0.6,1.78-0.6s0.8-0.3,1.68-0.84
	c0.88-0.54,1.96,0.35,2.12,1.03c0.18,0.8,0.08,2.54,0.68,4.57c0.16,0.54,0.4,0.63,0.52,0.64c0.69-0.18,1.39-0.31,2.1-0.41
	c0.1-0.05,0.31-0.22,0.25-0.8c-0.22-2.11-0.99-3.68-1.12-4.49c-0.11-0.69,0.54-1.92,1.56-1.76c0.91,0.14,1.69,0.13,1.84,0.13v50.53
	C40.51,61.87,39.74,61.86,38.82,62z"/>
<g>
	<g class="st3">
		<path class="st4" d="M402.37,55.37l7.14-40.4h9.4c6.19,0,10.23,3.69,8.75,11.84l-2.97,16.96c-1.43,7.97-5.53,11.6-11.78,11.6
			H402.37z M412.91,50.79c3.15,0,5.89-2.14,6.84-7.38l2.92-16.48c0.83-5.18-1.07-7.38-4.23-7.38h-4.76l-5.47,31.24H412.91z"/>
		<path class="st4" d="M428.8,46.62l2.14-11.9c1.07-6.01,4.17-9.1,8.57-9.1c2.68,0,4.82,1.49,5.3,3.81l0.59-3.21h4.76l-5.18,29.16
			h-4.76l0.6-2.86c-1.31,2.26-3.27,3.45-5.95,3.45C430.4,55.97,427.73,52.75,428.8,46.62z M441.77,46.5l1.96-11.31
			c0.66-3.39-0.59-5.24-3.09-5.24c-2.5,0-4.4,1.84-5,5.18l-2.02,11.43c-0.59,3.27,0.71,5.06,3.27,5.06
			C439.33,51.62,441.17,49.84,441.77,46.5z"/>
		<path class="st4" d="M462.18,55.07c-1.25,0.54-2.74,0.89-4.52,0.89c-3.99,0-5.89-2.26-5.12-7.02l3.33-18.8h-3.21l0.71-3.93
			c3.87,0,5.18-0.18,6.96-9.52h3.15l-1.73,9.52h5.36l-0.72,3.93h-5.71l-3.15,17.97c-0.48,2.56,0.42,3.39,1.78,3.39
			c1.31,0,2.62-0.54,3.69-1.19L462.18,55.07z"/>
		<path class="st4" d="M466.41,46.62l2.14-11.9c1.07-6.01,4.17-9.1,8.57-9.1c2.68,0,4.82,1.49,5.3,3.81l0.59-3.21h4.76l-5.18,29.16
			h-4.76l0.6-2.86c-1.31,2.26-3.27,3.45-5.95,3.45C468.01,55.97,465.34,52.75,466.41,46.62z M479.38,46.5l1.96-11.31
			c0.66-3.39-0.59-5.24-3.09-5.24c-2.5,0-4.4,1.84-5,5.18l-2.02,11.43c-0.59,3.27,0.71,5.06,3.27,5.06
			C476.94,51.62,478.78,49.84,479.38,46.5z"/>
		<path class="st4" d="M502.23,55.37h-5l7.14-40.4h9.64c5.71,0,9.16,3.03,8.09,9.22l-1.31,7.2c-1.01,5.89-4.46,8.93-10.06,8.93
			h-5.89L502.23,55.37z M515.86,30.91l1.13-6.37c0.6-3.45-1.07-5-4.17-5h-4.28l-2.92,16.48h4.4
			C513.06,36.03,515.26,34.49,515.86,30.91z"/>
		<path class="st4" d="M521.87,46.39l2.02-11.31c1.13-6.37,5-9.46,10-9.46c5.06,0,8.87,3.09,7.68,9.64l-2.02,11.37
			c-1.07,6.31-4.94,9.34-9.94,9.34C524.61,55.97,520.74,52.93,521.87,46.39z M534.78,46.56l2.02-11.43
			c0.59-3.33-0.65-5.18-3.21-5.18c-2.44,0-4.28,1.84-4.88,5.24l-2.02,11.31c-0.59,3.33,0.65,5.12,3.09,5.12
			C532.28,51.62,534.25,49.84,534.78,46.56z"/>
		<path class="st4" d="M547.99,26.21h4.82l-0.59,3.57c1.61-3.04,3.99-4.17,7.97-4.17l-1.07,5.53c-0.54-0.3-1.84-0.48-2.32-0.48
			c-3.93,0-5.3,2.92-6.31,8.51l-2.8,16.18h-4.82L547.99,26.21z"/>
		<path class="st4" d="M569.89,55.07c-1.25,0.54-2.74,0.89-4.52,0.89c-3.99,0-5.89-2.26-5.12-7.02l3.33-18.8h-3.21l0.71-3.93
			c3.87,0,5.18-0.18,6.96-9.52h3.15l-1.73,9.52h5.36l-0.72,3.93h-5.71l-3.15,17.97c-0.48,2.56,0.42,3.39,1.79,3.39
			c1.31,0,2.62-0.54,3.69-1.19L569.89,55.07z"/>
		<path class="st4" d="M574.12,46.62l2.14-11.9c1.07-6.01,4.17-9.1,8.57-9.1c2.68,0,4.82,1.49,5.3,3.81l0.59-3.21h4.76l-5.18,29.16
			h-4.76l0.6-2.86c-1.31,2.26-3.27,3.45-5.95,3.45C575.73,55.97,573.05,52.75,574.12,46.62z M587.09,46.5l1.96-11.31
			c0.66-3.39-0.59-5.24-3.09-5.24c-2.5,0-4.4,1.84-5,5.18l-2.02,11.43c-0.59,3.27,0.71,5.06,3.27,5.06
			C584.65,51.62,586.5,49.84,587.09,46.5z"/>
		<path class="st4" d="M600.54,55.37h-2.2c-1.96,0-2.44-0.83-2.08-2.8l6.61-37.61h4.82L600.54,55.37z"/>
	</g>
</g>
<g class="st3">
	<path class="st5" d="M135.8,77.86l-2.08,3.64h-2.5l9.44-16.59l4.48,16.59h-2.4l-0.93-3.64H135.8z M136.9,75.88h4.37l-1.38-5.51
		L136.9,75.88z"/>
	<path class="st5" d="M155.21,72.97l-0.4,2.26c-0.42-0.58-0.84-1-1.24-1.25c-0.4-0.25-0.87-0.37-1.43-0.37
		c-0.84,0-1.55,0.31-2.13,0.93c-0.57,0.62-0.89,1.42-0.94,2.4c-0.05,0.92,0.17,1.65,0.65,2.2c0.49,0.56,1.14,0.83,1.95,0.83
		c0.78,0,1.61-0.34,2.48-1.01l-0.41,2.34c-0.87,0.35-1.7,0.52-2.48,0.52c-1.38,0-2.49-0.45-3.31-1.35c-0.82-0.9-1.19-2.07-1.11-3.51
		c0.08-1.48,0.61-2.71,1.59-3.7c0.99-1,2.18-1.49,3.57-1.49C153.15,71.75,154.22,72.15,155.21,72.97z"/>
	<path class="st5" d="M164.63,72.97l-0.4,2.26c-0.42-0.58-0.84-1-1.24-1.25c-0.4-0.25-0.87-0.37-1.43-0.37
		c-0.84,0-1.55,0.31-2.13,0.93c-0.57,0.62-0.89,1.42-0.94,2.4c-0.05,0.92,0.17,1.65,0.65,2.2c0.49,0.56,1.14,0.83,1.95,0.83
		c0.78,0,1.61-0.34,2.48-1.01l-0.41,2.34c-0.87,0.35-1.7,0.52-2.48,0.52c-1.38,0-2.49-0.45-3.31-1.35c-0.82-0.9-1.19-2.07-1.11-3.51
		c0.08-1.48,0.61-2.71,1.59-3.7c0.99-1,2.18-1.49,3.57-1.49C162.57,71.75,163.64,72.15,164.63,72.97z"/>
	<path class="st5" d="M167.93,77.57c-0.04,0.7,0.17,1.27,0.63,1.72c0.46,0.45,1.08,0.67,1.83,0.67c1.04,0,1.85-0.39,2.45-1.16
		l1.61,0.91c-0.62,0.78-1.24,1.32-1.86,1.63c-0.63,0.31-1.41,0.47-2.33,0.47c-1.46,0-2.61-0.43-3.43-1.29
		c-0.82-0.86-1.2-2.02-1.12-3.46c0.08-1.51,0.62-2.78,1.63-3.79c1-1.01,2.23-1.51,3.68-1.51c1.4,0,2.49,0.45,3.25,1.36
		c0.77,0.92,1.12,2.14,1.04,3.68c-0.01,0.16-0.03,0.42-0.07,0.78H167.93z M173.11,75.79c-0.16-1.46-0.93-2.19-2.3-2.19
		c-1.3,0-2.19,0.73-2.66,2.19H173.11z"/>
	<path class="st5" d="M182.17,64.56l-2.96,16.94h-2.22l2.97-16.94H182.17z"/>
	<path class="st5" d="M184.78,77.57c-0.04,0.7,0.17,1.27,0.63,1.72c0.46,0.45,1.08,0.67,1.83,0.67c1.04,0,1.85-0.39,2.45-1.16
		l1.61,0.91c-0.62,0.78-1.24,1.32-1.86,1.63c-0.63,0.31-1.41,0.47-2.33,0.47c-1.46,0-2.61-0.43-3.43-1.29
		c-0.82-0.86-1.2-2.02-1.12-3.46c0.08-1.51,0.62-2.78,1.63-3.79c1-1.01,2.23-1.51,3.68-1.51c1.4,0,2.49,0.45,3.25,1.36
		c0.77,0.92,1.12,2.14,1.04,3.68c-0.01,0.16-0.03,0.42-0.07,0.78H184.78z M189.96,75.79c-0.16-1.46-0.93-2.19-2.3-2.19
		c-1.3,0-2.19,0.73-2.66,2.19H189.96z"/>
	<path class="st5" d="M197.71,72.06l-0.14,0.81c0.79-0.71,1.56-1.06,2.32-1.06c0.67,0,1.26,0.24,1.79,0.73l-1.51,1.83
		c-0.39-0.35-0.79-0.52-1.2-0.52c-0.28,0-0.53,0.06-0.75,0.17c-0.22,0.11-0.41,0.28-0.58,0.52c-0.17,0.24-0.32,0.54-0.44,0.92
		c-0.12,0.37-0.23,0.82-0.32,1.34l-0.83,4.72h-2.22l1.66-9.45H197.71z"/>
	<path class="st5" d="M212.48,72.06l-1.66,9.45h-2.22l0.18-1.02c-0.99,0.83-2,1.24-3.01,1.24c-1.25,0-2.25-0.42-2.99-1.27
		s-1.08-1.95-1.01-3.3c0.08-1.56,0.6-2.84,1.56-3.83c0.97-1,2.17-1.49,3.6-1.49c0.68,0,1.25,0.11,1.71,0.33
		c0.47,0.22,0.94,0.6,1.41,1.14l0.22-1.24H212.48z M209.54,76.51c0.04-0.84-0.16-1.51-0.62-2.04c-0.45-0.53-1.06-0.79-1.82-0.79
		c-0.83,0-1.54,0.32-2.14,0.97c-0.6,0.66-0.92,1.46-0.97,2.41c-0.04,0.83,0.16,1.51,0.6,2.04c0.44,0.53,1.03,0.79,1.76,0.79
		c0.82,0,1.54-0.33,2.17-0.99C209.16,78.22,209.5,77.43,209.54,76.51z"/>
	<path class="st5" d="M217.59,74.11l-1.3,7.39h-2.22l1.3-7.39h-1.25l0.36-2.06h1.25l0.77-4.38h2.22l-0.77,4.38h2.05l-0.36,2.06
		H217.59z"/>
	<path class="st5" d="M223.81,72.06l-1.66,9.45h-2.22l1.66-9.45H223.81z M224.74,67.56c-0.02,0.32-0.15,0.6-0.39,0.83
		c-0.25,0.24-0.53,0.35-0.86,0.35c-0.33,0-0.61-0.12-0.83-0.36c-0.22-0.25-0.32-0.54-0.31-0.87c0.02-0.33,0.15-0.6,0.38-0.83
		c0.25-0.23,0.53-0.35,0.85-0.35c0.33,0,0.61,0.12,0.83,0.37C224.65,66.94,224.76,67.23,224.74,67.56z"/>
	<path class="st5" d="M229.12,72.06l-0.15,0.87c0.91-0.73,1.82-1.1,2.72-1.1c0.92,0,1.65,0.26,2.18,0.77
		c0.51,0.52,0.75,1.22,0.7,2.11c-0.03,0.48-0.1,1.06-0.21,1.73l-0.9,5.08h-2.21l0.97-5.56c0.04-0.21,0.07-0.39,0.08-0.55
		c0.02-0.16,0.03-0.3,0.04-0.43c0.04-0.86-0.39-1.28-1.32-1.28c-0.57,0-1.07,0.17-1.49,0.52c-0.35,0.27-0.61,0.61-0.79,1
		c-0.1,0.2-0.18,0.45-0.26,0.74c-0.08,0.29-0.15,0.63-0.21,1.01l-0.8,4.55h-2.22l1.66-9.45H229.12z"/>
	<path class="st5" d="M247.71,72.06l-1.66,9.52c-0.1,0.57-0.21,1.06-0.32,1.48c-0.11,0.42-0.23,0.77-0.36,1.06
		c-0.26,0.59-0.64,1.09-1.12,1.52c-0.94,0.8-2.12,1.2-3.55,1.2c-1.48,0-2.66-0.39-3.53-1.16c-0.45-0.39-0.75-0.83-0.91-1.32
		c-0.16-0.45-0.22-1.09-0.18-1.92h2.15c0.01,0.89,0.2,1.54,0.58,1.94c0.38,0.41,0.99,0.61,1.83,0.61c0.91,0,1.61-0.24,2.11-0.73
		c0.5-0.48,0.84-1.26,1.02-2.31l0.23-1.29c-0.97,0.72-1.98,1.07-3.01,1.07c-1.28,0-2.32-0.44-3.11-1.31
		c-0.79-0.9-1.15-2.01-1.08-3.35c0.08-1.5,0.63-2.75,1.65-3.74c1.03-1,2.28-1.49,3.74-1.49c0.7,0,1.27,0.1,1.69,0.31
		c0.46,0.2,0.94,0.57,1.42,1.09l0.2-1.17H247.71z M244.93,76.54c0.04-0.86-0.18-1.54-0.67-2.07c-0.49-0.53-1.16-0.79-2.01-0.79
		c-0.88,0-1.62,0.32-2.24,0.96c-0.61,0.64-0.94,1.44-0.99,2.4c-0.04,0.84,0.17,1.53,0.63,2.07c0.47,0.52,1.12,0.77,1.95,0.77
		c0.92,0,1.69-0.31,2.31-0.94C244.54,78.3,244.88,77.5,244.93,76.54z"/>
	<path class="st5" d="M259.38,72.06l-0.14,0.81c0.79-0.71,1.56-1.06,2.32-1.06c0.67,0,1.26,0.24,1.79,0.73l-1.51,1.83
		c-0.39-0.35-0.79-0.52-1.2-0.52c-0.28,0-0.53,0.06-0.75,0.17c-0.22,0.11-0.41,0.28-0.58,0.52c-0.17,0.24-0.32,0.54-0.44,0.92
		c-0.12,0.37-0.23,0.82-0.32,1.34l-0.83,4.72h-2.22l1.66-9.45H259.38z"/>
	<path class="st5" d="M265.71,77.57c-0.04,0.7,0.17,1.27,0.63,1.72c0.46,0.45,1.08,0.67,1.83,0.67c1.04,0,1.85-0.39,2.45-1.16
		l1.61,0.91c-0.62,0.78-1.24,1.32-1.86,1.63c-0.63,0.31-1.41,0.47-2.33,0.47c-1.46,0-2.61-0.43-3.43-1.29
		c-0.82-0.86-1.2-2.02-1.12-3.46c0.08-1.51,0.62-2.78,1.63-3.79c1-1.01,2.23-1.51,3.68-1.51c1.4,0,2.49,0.45,3.25,1.36
		c0.77,0.92,1.12,2.14,1.04,3.68c-0.01,0.16-0.03,0.42-0.07,0.78H265.71z M270.89,75.79c-0.16-1.46-0.93-2.19-2.3-2.19
		c-1.3,0-2.19,0.73-2.66,2.19H270.89z"/>
	<path class="st5" d="M282,73.1l-1.32,1.25c-0.56-0.53-1.09-0.79-1.59-0.79c-0.34,0-0.63,0.1-0.86,0.29
		c-0.23,0.19-0.36,0.43-0.37,0.71c-0.01,0.27,0.07,0.5,0.24,0.69c0.18,0.19,0.55,0.45,1.13,0.78c0.82,0.47,1.37,0.91,1.64,1.3
		c0.29,0.39,0.41,0.89,0.38,1.52c-0.05,0.9-0.4,1.61-1.05,2.16c-0.66,0.54-1.5,0.8-2.52,0.8c-1.38,0-2.5-0.62-3.34-1.88l1.51-1.01
		c0.56,0.72,1.17,1.07,1.85,1.07c0.38,0,0.69-0.1,0.93-0.3c0.24-0.2,0.37-0.46,0.39-0.78c0.01-0.28-0.07-0.51-0.26-0.68
		c-0.09-0.09-0.25-0.21-0.47-0.36c-0.23-0.15-0.53-0.34-0.92-0.55c-0.69-0.39-1.16-0.78-1.41-1.15c-0.25-0.39-0.37-0.88-0.34-1.44
		c0.04-0.86,0.4-1.57,1.05-2.13c0.66-0.56,1.47-0.84,2.44-0.84C280.18,71.75,281.14,72.2,282,73.1z"/>
	<path class="st5" d="M285.54,77.57c-0.04,0.7,0.17,1.27,0.63,1.72c0.46,0.45,1.08,0.67,1.83,0.67c1.04,0,1.85-0.39,2.45-1.16
		l1.61,0.91c-0.62,0.78-1.24,1.32-1.86,1.63c-0.63,0.31-1.41,0.47-2.33,0.47c-1.46,0-2.61-0.43-3.43-1.29
		c-0.82-0.86-1.2-2.02-1.12-3.46c0.08-1.51,0.62-2.78,1.63-3.79c1-1.01,2.23-1.51,3.68-1.51c1.4,0,2.49,0.45,3.25,1.36
		c0.77,0.92,1.12,2.14,1.04,3.68c-0.01,0.16-0.03,0.42-0.07,0.78H285.54z M290.72,75.79c-0.16-1.46-0.93-2.19-2.3-2.19
		c-1.3,0-2.19,0.73-2.66,2.19H290.72z"/>
	<path class="st5" d="M305.52,72.06l-1.66,9.45h-2.22l0.18-1.02c-0.99,0.83-2,1.24-3.01,1.24c-1.25,0-2.25-0.42-2.99-1.27
		c-0.74-0.85-1.08-1.95-1.01-3.3c0.08-1.56,0.6-2.84,1.55-3.83c0.97-1,2.17-1.49,3.6-1.49c0.67,0,1.24,0.11,1.71,0.33
		c0.47,0.22,0.94,0.6,1.41,1.14l0.22-1.24H305.52z M302.59,76.51c0.04-0.84-0.16-1.51-0.62-2.04c-0.45-0.53-1.06-0.79-1.82-0.79
		c-0.83,0-1.54,0.32-2.14,0.97c-0.6,0.66-0.92,1.46-0.97,2.41c-0.04,0.83,0.15,1.51,0.59,2.04c0.44,0.53,1.03,0.79,1.76,0.79
		c0.82,0,1.54-0.33,2.17-0.99C302.2,78.22,302.54,77.43,302.59,76.51z"/>
	<path class="st5" d="M310.84,72.06l-0.14,0.81c0.79-0.71,1.56-1.06,2.32-1.06c0.67,0,1.26,0.24,1.79,0.73l-1.51,1.83
		c-0.39-0.35-0.79-0.52-1.2-0.52c-0.28,0-0.53,0.06-0.75,0.17c-0.22,0.11-0.41,0.28-0.58,0.52c-0.17,0.24-0.32,0.54-0.44,0.92
		c-0.12,0.37-0.23,0.82-0.32,1.34l-0.83,4.72h-2.22l1.66-9.45H310.84z"/>
	<path class="st5" d="M323.31,72.97l-0.4,2.26c-0.42-0.58-0.84-1-1.24-1.25c-0.4-0.25-0.87-0.37-1.43-0.37
		c-0.84,0-1.55,0.31-2.13,0.93c-0.57,0.62-0.89,1.42-0.94,2.4c-0.05,0.92,0.17,1.65,0.65,2.2c0.49,0.56,1.14,0.83,1.95,0.83
		c0.78,0,1.61-0.34,2.48-1.01l-0.41,2.34c-0.87,0.35-1.7,0.52-2.48,0.52c-1.38,0-2.49-0.45-3.31-1.35c-0.82-0.9-1.19-2.07-1.11-3.51
		c0.08-1.48,0.61-2.71,1.59-3.7c0.99-1,2.18-1.49,3.57-1.49C321.25,71.75,322.32,72.15,323.31,72.97z"/>
	<path class="st5" d="M329.62,64.56l-1.46,8.3c0.93-0.69,1.85-1.03,2.76-1.03c0.92,0,1.65,0.24,2.17,0.73
		c0.54,0.48,0.79,1.11,0.75,1.9c-0.01,0.19-0.03,0.4-0.06,0.64c-0.03,0.24-0.07,0.51-0.12,0.81l-0.99,5.61h-2.22l1-5.73
		c0.06-0.31,0.09-0.58,0.1-0.83c0.04-0.84-0.43-1.26-1.42-1.26c-1.42,0-2.29,0.96-2.63,2.88l-0.87,4.95h-2.22l2.97-16.94H329.62z"/>
	<path class="st5" d="M345.78,74.11l-1.3,7.39h-2.22l1.3-7.39h-1.25l0.36-2.06h1.25l0.77-4.38h2.22l-0.77,4.38h2.05l-0.36,2.06
		H345.78z"/>
	<path class="st5" d="M353.54,64.56l-1.46,8.3c0.93-0.69,1.85-1.03,2.76-1.03c0.92,0,1.65,0.24,2.17,0.73
		c0.54,0.48,0.79,1.11,0.75,1.9c-0.01,0.19-0.03,0.4-0.06,0.64c-0.03,0.24-0.07,0.51-0.12,0.81l-0.99,5.61h-2.22l1-5.73
		c0.06-0.31,0.09-0.58,0.1-0.83c0.04-0.84-0.43-1.26-1.42-1.26c-1.42,0-2.29,0.96-2.63,2.88l-0.87,4.95h-2.22l2.97-16.94H353.54z"/>
	<path class="st5" d="M363.57,72.06l-0.14,0.81c0.79-0.71,1.56-1.06,2.32-1.06c0.67,0,1.26,0.24,1.79,0.73l-1.51,1.83
		c-0.39-0.35-0.79-0.52-1.2-0.52c-0.28,0-0.53,0.06-0.75,0.17c-0.22,0.11-0.41,0.28-0.58,0.52c-0.17,0.24-0.32,0.54-0.44,0.92
		c-0.12,0.37-0.23,0.82-0.32,1.34l-0.83,4.72h-2.22l1.66-9.45H363.57z"/>
	<path class="st5" d="M378.1,76.69c-0.08,1.44-0.64,2.66-1.7,3.64c-1.05,0.98-2.3,1.47-3.77,1.47c-1.53,0-2.76-0.46-3.68-1.39
		c-0.93-0.94-1.35-2.12-1.28-3.55c0.08-1.46,0.65-2.68,1.71-3.65c1.07-0.98,2.36-1.46,3.89-1.46c1.5,0,2.69,0.46,3.59,1.38
		C377.76,74.04,378.17,75.23,378.1,76.69z M375.87,76.58c0.05-0.91-0.18-1.63-0.68-2.16c-0.5-0.55-1.18-0.82-2.03-0.82
		c-0.89,0-1.64,0.3-2.26,0.91c-0.61,0.62-0.95,1.39-0.99,2.32c-0.05,0.94,0.19,1.69,0.7,2.26c0.52,0.58,1.21,0.87,2.08,0.87
		s1.6-0.32,2.2-0.95C375.49,78.38,375.81,77.57,375.87,76.58z"/>
	<path class="st5" d="M389.57,72.06l-0.96,5.5c-0.08,0.47-0.17,0.88-0.26,1.22c-0.1,0.35-0.2,0.64-0.31,0.87
		c-0.21,0.45-0.55,0.85-1.01,1.19c-0.78,0.59-1.78,0.88-3.01,0.88c-1.16,0-2.08-0.3-2.74-0.89c-0.66-0.6-0.97-1.41-0.92-2.42
		c0.01-0.15,0.03-0.33,0.05-0.54c0.03-0.21,0.06-0.44,0.11-0.71l0.89-5.11h2.22l-0.93,5.31c-0.04,0.23-0.07,0.43-0.09,0.6
		c-0.02,0.17-0.04,0.31-0.04,0.43c-0.05,1,0.51,1.5,1.68,1.5c0.64,0,1.11-0.16,1.43-0.49c0.32-0.33,0.55-0.9,0.69-1.73l0.99-5.61
		H389.57z"/>
	<path class="st5" d="M402.17,72.06l-1.66,9.52c-0.1,0.57-0.21,1.06-0.32,1.48c-0.11,0.42-0.23,0.77-0.36,1.06
		c-0.26,0.59-0.64,1.09-1.12,1.52c-0.94,0.8-2.12,1.2-3.55,1.2c-1.48,0-2.66-0.39-3.53-1.16c-0.45-0.39-0.75-0.83-0.91-1.32
		c-0.16-0.45-0.22-1.09-0.18-1.92h2.15c0.01,0.89,0.2,1.54,0.58,1.94c0.38,0.41,0.99,0.61,1.83,0.61c0.91,0,1.62-0.24,2.12-0.73
		c0.5-0.48,0.84-1.26,1.02-2.31l0.23-1.29c-0.97,0.72-1.98,1.07-3.01,1.07c-1.28,0-2.32-0.44-3.11-1.31
		c-0.79-0.9-1.15-2.01-1.08-3.35c0.08-1.5,0.63-2.75,1.65-3.74c1.03-1,2.28-1.49,3.74-1.49c0.7,0,1.27,0.1,1.69,0.31
		c0.46,0.2,0.94,0.57,1.42,1.09l0.2-1.17H402.17z M399.38,76.54c0.04-0.86-0.18-1.54-0.67-2.07c-0.49-0.53-1.16-0.79-2.01-0.79
		c-0.88,0-1.62,0.32-2.24,0.96c-0.61,0.64-0.94,1.44-0.99,2.4c-0.04,0.84,0.17,1.53,0.63,2.07c0.47,0.52,1.12,0.77,1.95,0.77
		c0.92,0,1.68-0.31,2.31-0.94C398.99,78.3,399.33,77.5,399.38,76.54z"/>
	<path class="st5" d="M408.81,64.56l-1.46,8.3c0.93-0.69,1.85-1.03,2.76-1.03c0.92,0,1.65,0.24,2.17,0.73
		c0.54,0.48,0.79,1.11,0.75,1.9c-0.01,0.19-0.03,0.4-0.06,0.64c-0.03,0.24-0.07,0.51-0.12,0.81l-0.99,5.61h-2.22l1-5.73
		c0.06-0.31,0.09-0.58,0.1-0.83c0.04-0.84-0.43-1.26-1.42-1.26c-1.42,0-2.29,0.96-2.63,2.88l-0.87,4.95h-2.22l2.97-16.94H408.81z"/>
	<path class="st5" d="M433.79,64.56l-2.97,16.94h-2.21l0.17-1.01c-0.57,0.49-1.07,0.82-1.48,0.99c-0.4,0.16-0.9,0.24-1.48,0.24
		c-1.32,0-2.38-0.44-3.18-1.31c-0.8-0.88-1.16-2.02-1.09-3.41c0.08-1.48,0.6-2.72,1.58-3.7c0.97-0.98,2.16-1.47,3.56-1.47
		c0.72,0,1.31,0.12,1.79,0.37c0.5,0.25,1,0.69,1.53,1.29l1.56-8.93H433.79z M429.52,76.37c0.04-0.8-0.17-1.45-0.64-1.95
		c-0.47-0.49-1.1-0.74-1.91-0.74c-0.87,0-1.61,0.32-2.21,0.97c-0.6,0.65-0.93,1.47-0.98,2.46c-0.04,0.84,0.16,1.51,0.63,2.02
		c0.46,0.5,1.1,0.75,1.91,0.75c0.84,0,1.57-0.34,2.19-1.02C429.13,78.19,429.47,77.36,429.52,76.37z"/>
	<path class="st5" d="M445.02,72.06l-1.66,9.45h-2.22l0.18-1.02c-0.99,0.83-2,1.24-3.01,1.24c-1.25,0-2.25-0.42-2.99-1.27
		c-0.75-0.85-1.08-1.95-1.01-3.3c0.08-1.56,0.6-2.84,1.56-3.83c0.97-1,2.17-1.49,3.6-1.49c0.67,0,1.24,0.11,1.71,0.33
		c0.47,0.22,0.94,0.6,1.41,1.14l0.22-1.24H445.02z M442.08,76.51c0.04-0.84-0.16-1.51-0.62-2.04c-0.45-0.53-1.06-0.79-1.82-0.79
		c-0.83,0-1.54,0.32-2.14,0.97c-0.6,0.66-0.92,1.46-0.97,2.41c-0.04,0.83,0.15,1.51,0.59,2.04c0.44,0.53,1.03,0.79,1.76,0.79
		c0.82,0,1.54-0.33,2.17-0.99C441.7,78.22,442.04,77.43,442.08,76.51z"/>
	<path class="st5" d="M450.13,74.11l-1.3,7.39h-2.22l1.3-7.39h-1.25l0.36-2.06h1.25l0.77-4.38h2.22l-0.77,4.38h2.05l-0.36,2.06
		H450.13z"/>
	<path class="st5" d="M463.79,72.06l-1.66,9.45h-2.22l0.18-1.02c-0.99,0.83-2,1.24-3.01,1.24c-1.25,0-2.25-0.42-2.99-1.27
		c-0.75-0.85-1.08-1.95-1.01-3.3c0.08-1.56,0.6-2.84,1.56-3.83c0.97-1,2.17-1.49,3.6-1.49c0.67,0,1.24,0.11,1.71,0.33
		c0.47,0.22,0.94,0.6,1.41,1.14l0.22-1.24H463.79z M460.86,76.51c0.04-0.84-0.16-1.51-0.62-2.04c-0.45-0.53-1.06-0.79-1.82-0.79
		c-0.83,0-1.54,0.32-2.14,0.97c-0.6,0.66-0.92,1.46-0.97,2.41c-0.04,0.83,0.15,1.51,0.59,2.04c0.44,0.53,1.03,0.79,1.76,0.79
		c0.82,0,1.54-0.33,2.17-0.99C460.47,78.22,460.81,77.43,460.86,76.51z"/>
	<path class="st5" d="M478.8,73.1l-1.32,1.25c-0.56-0.53-1.09-0.79-1.59-0.79c-0.34,0-0.63,0.1-0.86,0.29
		c-0.23,0.19-0.36,0.43-0.37,0.71c-0.01,0.27,0.07,0.5,0.24,0.69c0.18,0.19,0.56,0.45,1.13,0.78c0.82,0.47,1.37,0.91,1.64,1.3
		c0.29,0.39,0.41,0.89,0.38,1.52c-0.05,0.9-0.4,1.61-1.05,2.16c-0.66,0.54-1.5,0.8-2.52,0.8c-1.38,0-2.5-0.62-3.34-1.88l1.51-1.01
		c0.56,0.72,1.17,1.07,1.85,1.07c0.38,0,0.69-0.1,0.93-0.3c0.24-0.2,0.37-0.46,0.39-0.78c0.01-0.28-0.07-0.51-0.25-0.68
		c-0.09-0.09-0.25-0.21-0.47-0.36c-0.23-0.15-0.53-0.34-0.92-0.55c-0.69-0.39-1.16-0.78-1.41-1.15c-0.25-0.39-0.36-0.88-0.34-1.44
		c0.04-0.86,0.4-1.57,1.05-2.13c0.66-0.56,1.47-0.84,2.44-0.84C476.99,71.75,477.95,72.2,478.8,73.1z"/>
	<path class="st5" d="M485.06,64.56l-1.46,8.3c0.93-0.69,1.85-1.03,2.76-1.03c0.92,0,1.65,0.24,2.17,0.73
		c0.54,0.48,0.79,1.11,0.75,1.9c-0.01,0.19-0.03,0.4-0.06,0.64c-0.03,0.24-0.07,0.51-0.12,0.81l-0.99,5.61h-2.22l1-5.73
		c0.06-0.31,0.09-0.58,0.1-0.83c0.04-0.84-0.43-1.26-1.42-1.26c-1.42,0-2.29,0.96-2.63,2.88l-0.87,4.95h-2.22l2.97-16.94H485.06z"/>
	<path class="st5" d="M502.15,72.06l-1.66,9.45h-2.22l0.18-1.02c-0.99,0.83-2,1.24-3.01,1.24c-1.25,0-2.25-0.42-2.99-1.27
		c-0.75-0.85-1.08-1.95-1.01-3.3c0.08-1.56,0.6-2.84,1.56-3.83c0.97-1,2.17-1.49,3.6-1.49c0.67,0,1.24,0.11,1.71,0.33
		c0.47,0.22,0.94,0.6,1.41,1.14l0.22-1.24H502.15z M499.21,76.51c0.04-0.84-0.16-1.51-0.62-2.04c-0.45-0.53-1.06-0.79-1.82-0.79
		c-0.83,0-1.54,0.32-2.14,0.97c-0.6,0.66-0.92,1.46-0.97,2.41c-0.04,0.83,0.15,1.51,0.59,2.04c0.44,0.53,1.03,0.79,1.76,0.79
		c0.82,0,1.54-0.33,2.17-0.99C498.83,78.22,499.16,77.43,499.21,76.51z"/>
	<path class="st5" d="M507.46,72.06l-0.14,0.81c0.79-0.71,1.56-1.06,2.32-1.06c0.67,0,1.26,0.24,1.79,0.73l-1.51,1.83
		c-0.39-0.35-0.79-0.52-1.2-0.52c-0.28,0-0.53,0.06-0.75,0.17c-0.22,0.11-0.41,0.28-0.58,0.52c-0.17,0.24-0.32,0.54-0.44,0.92
		c-0.12,0.37-0.23,0.82-0.32,1.34l-0.83,4.72h-2.22l1.66-9.45H507.46z"/>
	<path class="st5" d="M515.51,72.06l-1.66,9.45h-2.22l1.66-9.45H515.51z M516.44,67.56c-0.02,0.32-0.15,0.6-0.4,0.83
		c-0.25,0.24-0.53,0.35-0.86,0.35c-0.33,0-0.61-0.12-0.83-0.36c-0.22-0.25-0.32-0.54-0.31-0.87c0.02-0.33,0.15-0.6,0.38-0.83
		c0.25-0.23,0.53-0.35,0.85-0.35c0.33,0,0.61,0.12,0.83,0.37C516.35,66.94,516.46,67.23,516.44,67.56z"/>
	<path class="st5" d="M520.82,72.06l-0.15,0.87c0.91-0.73,1.82-1.1,2.72-1.1c0.92,0,1.65,0.26,2.18,0.77
		c0.51,0.52,0.75,1.22,0.7,2.11c-0.03,0.48-0.1,1.06-0.21,1.73l-0.9,5.08h-2.21l0.97-5.56c0.04-0.21,0.07-0.39,0.08-0.55
		c0.02-0.16,0.03-0.3,0.04-0.43c0.04-0.86-0.4-1.28-1.32-1.28c-0.57,0-1.07,0.17-1.49,0.52c-0.35,0.27-0.61,0.61-0.8,1
		c-0.1,0.2-0.18,0.45-0.26,0.74c-0.08,0.29-0.15,0.63-0.21,1.01l-0.8,4.55h-2.22l1.66-9.45H520.82z"/>
	<path class="st5" d="M539.41,72.06l-1.66,9.52c-0.1,0.57-0.21,1.06-0.32,1.48c-0.11,0.42-0.23,0.77-0.36,1.06
		c-0.26,0.59-0.64,1.09-1.12,1.52c-0.94,0.8-2.12,1.2-3.55,1.2c-1.48,0-2.66-0.39-3.53-1.16c-0.45-0.39-0.75-0.83-0.91-1.32
		c-0.16-0.45-0.22-1.09-0.18-1.92h2.15c0.01,0.89,0.2,1.54,0.58,1.94c0.38,0.41,0.99,0.61,1.83,0.61c0.91,0,1.62-0.24,2.12-0.73
		c0.5-0.48,0.84-1.26,1.02-2.31l0.23-1.29c-0.97,0.72-1.98,1.07-3.01,1.07c-1.28,0-2.32-0.44-3.11-1.31
		c-0.79-0.9-1.15-2.01-1.08-3.35c0.08-1.5,0.63-2.75,1.65-3.74c1.03-1,2.28-1.49,3.74-1.49c0.7,0,1.27,0.1,1.69,0.31
		c0.46,0.2,0.94,0.57,1.42,1.09l0.2-1.17H539.41z M536.62,76.54c0.04-0.86-0.18-1.54-0.67-2.07c-0.49-0.53-1.16-0.79-2.01-0.79
		c-0.88,0-1.62,0.32-2.24,0.96c-0.61,0.64-0.94,1.44-0.99,2.4c-0.04,0.84,0.17,1.53,0.63,2.07c0.47,0.52,1.12,0.77,1.95,0.77
		c0.92,0,1.68-0.31,2.31-0.94C536.23,78.3,536.57,77.5,536.62,76.54z"/>
</g>
<g>
	<path d="M85.28,46.5l0.43-2.32l6.59-0.61L92,45.58C91.2,50.47,91.94,52,94.68,52c2.87,0,4.94-2.32,4.94-6.29
		c0-1.65-0.67-2.99-1.77-3.91l-4.58-3.66c-3.05-2.56-4.52-4.76-4.52-8.61c0-6.78,4.21-13.31,12.7-13.31
		c6.29,0,11.36,2.75,10.01,10.38l-0.55,2.99l-6.59,0.61l0.37-2.38c0.55-3.05,0-5.13-2.56-5.13c-2.63,0-4.27,2.5-4.27,5.74
		c0,1.65,0.49,2.81,2.2,4.09l4.88,3.79c2.44,1.89,3.91,4.27,3.91,8.49c0,6.9-3.17,14.1-13.55,14.1
		C88.15,58.89,83.69,55.54,85.28,46.5z"/>
	<path d="M125.27,16.83h11.17l0.49,41.45h-9.71v-7.57h-7.33l-2.69,7.57h-8.12L125.27,16.83z M121.92,43.75h5.74l0.12-16.42
		L121.92,43.75z"/>
	<path d="M165.75,58.28h-6.78c-1.95,0-2.2-1.46-1.95-3.36l1.22-9.71c0.37-3.05-0.92-3.97-2.81-3.97h-2.26l-2.99,17.03h-8.55
		l7.33-41.45h12.76c6.29,0,9.89,3.6,8.73,10.07l-0.73,4.33c-0.73,4.15-3.66,6.17-6.23,6.96v0.24c2.01,0.49,3.79,2.2,3.3,6.41
		l-1.04,9.04c-0.12,1.59-0.24,2.69,0.18,3.36L165.75,58.28z M161.24,30.99l0.43-2.56c0.43-2.44-0.55-3.54-2.87-3.54h-2.69
		l-1.71,9.83h2.69C159.4,34.72,160.81,33.56,161.24,30.99z"/>
	<path d="M171.74,46.5l0.43-2.32l6.59-0.61l-0.31,2.02c-0.79,4.88-0.06,6.41,2.69,6.41c2.87,0,4.94-2.32,4.94-6.29
		c0-1.65-0.67-2.99-1.77-3.91l-4.58-3.66c-3.05-2.56-4.52-4.76-4.52-8.61c0-6.78,4.21-13.31,12.7-13.31
		c6.29,0,11.36,2.75,10.01,10.38l-0.55,2.99l-6.59,0.61l0.37-2.38c0.55-3.05,0-5.13-2.56-5.13c-2.63,0-4.27,2.5-4.27,5.74
		c0,1.65,0.49,2.81,2.2,4.09l4.88,3.79c2.44,1.89,3.91,4.27,3.91,8.49c0,6.9-3.17,14.1-13.55,14.1
		C174.61,58.89,170.15,55.54,171.74,46.5z"/>
	<path d="M201.6,37.77h15.63l-1.16,6.29H200.5L201.6,37.77z"/>
	<path d="M245.92,43.26l-0.55,2.99c-1.53,8.61-6.59,12.64-13.25,12.64c-7.02,0-12.15-4.03-10.5-13.43l2.93-16.6
		c1.53-8.55,6.29-12.64,13.25-12.64c6.72,0,12.15,4.09,10.56,13.13l-0.49,2.56l-7.27,0.49l0.37-2.5c0.73-3.72-0.67-5.25-3.05-5.25
		s-4.27,1.53-4.95,5.25l-2.69,15.2c-0.67,3.91,0.73,5.37,3.11,5.37c2.38,0,4.21-1.46,4.94-5.37l0.43-2.38L245.92,43.26z"/>
	<path d="M249.59,47.17l1.59-8.85c1.4-7.94,6.78-11.17,12.45-11.17c5.8,0,11.48,3.24,9.95,11.78l-1.59,8.85
		c-1.34,7.94-6.72,11.11-12.39,11.11C253.86,58.89,248.12,55.72,249.59,47.17z M263.69,47.48l1.59-8.91
		c0.49-2.69-0.43-3.97-2.2-3.97c-1.71,0-3.05,1.34-3.54,3.97l-1.59,8.91c-0.49,2.62,0.43,3.85,2.2,3.85
		C261.86,51.32,263.26,50.1,263.69,47.48z"/>
	<path d="M297.64,16.83h8.06l-15.38,41.45h-10.2l-1.1-41.45h9.4l-0.18,26.98L297.64,16.83z"/>
	<path d="M304.78,37.77h15.63l-1.16,6.29h-15.57L304.78,37.77z"/>
	<path d="M325.97,31.97l0.67-3.72c1.34-7.81,5.31-12.03,12.39-12.03c8.06,0,11.42,4.58,10.32,11.84l-0.18,1.46
		c-0.98,5.86-6.65,11.29-14.59,20.76h10.26l-1.4,8h-21.92l1.04-5.92c11.48-12.94,17.28-18.62,18.19-22.83l0.18-0.85
		c0.67-2.87-0.37-4.7-2.75-4.7c-2.2,0-3.85,1.53-4.52,5.31l-0.55,3.17L325.97,31.97z"/>
</g>
<g>
	<path class="st6" d="M359.78,58.28l7.14-40.4h9.4c6.19,0,10.23,3.69,8.75,11.84l-2.97,16.96c-1.43,7.97-5.53,11.6-11.78,11.6
		H359.78z M370.31,53.7c3.15,0,5.89-2.14,6.84-7.38l2.92-16.48c0.83-5.18-1.07-7.38-4.22-7.38h-4.76l-5.47,31.23H370.31z"/>
	<path class="st6" d="M386.38,49.54l2.14-11.9c1.07-6.01,4.16-9.1,8.57-9.1c2.68,0,4.82,1.49,5.29,3.81l0.6-3.21h4.76l-5.18,29.15
		h-4.76l0.6-2.86c-1.31,2.26-3.27,3.45-5.95,3.45C387.98,58.88,385.31,55.67,386.38,49.54z M399.35,49.42l1.96-11.3
		c0.65-3.39-0.6-5.24-3.09-5.24c-2.5,0-4.4,1.84-5,5.18l-2.02,11.42c-0.59,3.27,0.71,5.06,3.27,5.06
		C396.91,54.54,398.75,52.75,399.35,49.42z"/>
	<path class="st6" d="M419.93,57.99c-1.25,0.54-2.74,0.89-4.52,0.89c-3.99,0-5.89-2.26-5.12-7.02l3.33-18.8h-3.21l0.71-3.93
		c3.87,0,5.18-0.18,6.96-9.52h3.15l-1.73,9.52h5.35l-0.71,3.93h-5.71l-3.15,17.97c-0.48,2.56,0.42,3.39,1.79,3.39
		c1.31,0,2.62-0.54,3.69-1.19L419.93,57.99z"/>
	<path class="st6" d="M424.34,49.54l2.14-11.9c1.07-6.01,4.17-9.1,8.57-9.1c2.68,0,4.82,1.49,5.29,3.81l0.59-3.21h4.76l-5.18,29.15
		h-4.76l0.59-2.86c-1.31,2.26-3.27,3.45-5.95,3.45C425.94,58.88,423.27,55.67,424.34,49.54z M437.31,49.42l1.96-11.3
		c0.65-3.39-0.59-5.24-3.09-5.24c-2.5,0-4.4,1.84-5,5.18l-2.02,11.42c-0.59,3.27,0.71,5.06,3.27,5.06
		C434.87,54.54,436.71,52.75,437.31,49.42z"/>
	<path class="st6" d="M467.53,17.89l-3.03,17.43h10.83l3.15-17.43h4.94l-7.14,40.4h-4.94l3.21-18.15h-10.95l-3.21,18.15h-4.88
		l7.14-40.4H467.53z"/>
	<path class="st6" d="M494.84,58.28l0.54-2.92c-1.43,2.02-3.51,3.51-6.37,3.51c-4.22,0-6.54-2.92-5.59-8.69l3.75-21.06h4.82
		l-3.57,20.29c-0.65,3.21,0.12,5.12,2.62,5.12c2.5,0,4.82-1.9,5.35-5.18l3.63-20.23h4.76l-5.18,29.15H494.84z"/>
	<path class="st6" d="M510.49,54.95l-0.59,3.33h-4.76l7.14-40.4h4.76l-2.5,13.98c1.25-1.96,3.15-3.33,5.89-3.33
		c4.28,0,7.14,3.03,6.01,9.28l-2.08,12.08c-1.07,5.89-4.11,8.98-8.39,8.98C513.17,58.88,510.97,57.33,510.49,54.95z M519.59,49.48
		l2.02-11.42c0.59-3.33-0.65-5.18-3.15-5.18c-2.44,0-4.4,1.84-5,5.24l-1.96,11.3c-0.59,3.33,0.66,5.12,3.15,5.12
		C517.15,54.54,519.06,52.75,519.59,49.48z"/>
	<path class="st6" d="M528.4,50.37l0.3-1.55l4.11-0.59l-0.3,1.73c-0.71,3.75,0.06,5.29,2.74,5.29c3.39,0,5.06-2.08,5.06-5.95
		c0-1.37-0.54-2.32-1.79-2.97l-3.93-2.14c-2.5-1.37-3.75-3.15-3.75-5.95c0-5.71,2.92-9.7,9.1-9.7c4.58,0,7.62,2.44,6.78,6.96
		l-0.36,1.96l-4.11,0.59l0.3-1.84c0.48-2.62-0.18-3.93-2.44-3.93c-3.27,0-4.4,2.38-4.4,5.24c0,1.25,0.54,2.26,2.44,3.27l3.81,2.02
		c2.14,1.19,3.33,2.86,3.33,5.59c0,5.71-2.74,10.47-9.99,10.47C530.06,58.88,527.39,56.02,528.4,50.37z"/>
</g>
<g>
</g>
<g>
</g>
<g>
</g>
<g>
</g>
<g>
</g>
<g>
</g>
</svg>
